<?xml version="1.0" standalone="no"?>
<!DOCTYPE svg PUBLIC "-//W3C//DTD SVG 20010904//EN"
    "http://www.w3.org/TR/2001/REC-SVG-20010904/DTD/svg10.dtd">
<svg height="169.000000pt" preserveAspectRatio="xMidYMid meet"
     version="1.0" viewBox="0 0 119.000000 169.000000" width="119.000000pt"
     xmlns="http://www.w3.org/2000/svg">

    <g fill="#285AFF"
       stroke="none" transform="translate(0.000000,169.000000) scale(0.100000,-0.100000)">
        <path d="M215 1630 c14 -78 50 -179 89 -255 22 -44 42 -83 44 -88 2 -4 -13 3
-35 15 -51 30 -191 170 -237 238 -32 47 -37 50 -31 25 13 -63 98 -218 161
-297 l66 -81 -28 -21 c-94 -67 -214 -216 -214 -265 0 -6 25 9 56 34 52 42 161
105 183 105 6 0 -12 -21 -40 -47 -33 -31 -62 -72 -86 -122 -33 -68 -37 -85
-41 -178 -3 -57 -2 -103 1 -103 2 0 17 25 32 55 25 53 118 165 135 165 5 0 -1
-21 -13 -47 -30 -66 -32 -249 -3 -303 l19 -35 13 57 c17 72 44 125 80 158 24
22 26 22 19 5 -19 -50 -35 -110 -35 -134 0 -33 19 -101 28 -101 4 0 15 19 25
43 10 23 31 58 47 77 l29 35 1 -56 c0 -61 25 -159 40 -159 6 0 10 11 10 24 0
25 38 87 58 94 8 2 12 -9 12 -36 0 -56 25 -83 136 -144 156 -86 206 -143 190
-219 -9 -45 2 -35 31 27 22 49 25 66 21 138 -3 66 -10 92 -34 136 -36 68 -129
163 -214 220 -163 110 -238 235 -197 330 l15 35 1 -60 c1 -38 7 -70 19 -89 17
-29 19 -29 94 -27 71 2 82 0 144 -33 37 -20 73 -36 81 -36 28 0 73 -31 79 -55
3 -14 10 -25 16 -25 23 0 71 34 88 63 25 40 25 46 1 40 -12 -3 -26 3 -37 16
-10 12 -30 21 -45 21 -18 0 -36 10 -52 29 -18 22 -30 28 -49 24 -15 -3 -31 2
-41 11 -8 9 -23 16 -32 16 -8 0 -21 11 -27 25 -10 23 -17 25 -72 25 l-61 1 35
19 c48 26 104 26 131 -1 15 -15 28 -19 46 -14 37 9 79 -12 97 -48 13 -28 19
-31 54 -28 32 2 43 -2 56 -20 13 -20 18 -21 41 -11 25 12 45 47 59 105 6 26 5
27 -13 18 -29 -16 -44 -14 -73 14 -36 33 -89 65 -110 65 -23 0 -71 43 -122
109 -51 66 -101 104 -177 132 -134 51 -280 181 -454 404 -15 19 -16 18 -10
-15z m586 -508 c24 -16 53 -39 63 -50 19 -22 19 -22 0 -22 -28 0 -78 34 -103
69 -28 38 -18 39 40 3z" />
    </g>
</svg>
